<?xml version="1.0" encoding="UTF-8" standalone="no"?>
<!DOCTYPE svg PUBLIC "-//W3C//DTD SVG 1.1//EN" "http://www.w3.org/Graphics/SVG/1.1/DTD/svg11.dtd">
<svg width="100%" height="100%" viewBox="0 0 713 102" version="1.1" xmlns="http://www.w3.org/2000/svg" xmlns:xlink="http://www.w3.org/1999/xlink" xml:space="preserve" xmlns:serif="http://www.serif.com/" style="fill-rule:evenodd;clip-rule:evenodd;stroke-linejoin:round;stroke-miterlimit:2;">
    <g id="Layer-1" serif:id="Layer 1">
        <path d="M10.583,90.585L10.583,59.085L79.083,59.085L79.083,48.502L10.583,48.502L10.583,11.543L89.667,11.543L89.667,1.085L0,1.085L0,101.21L94.833,101.21L94.833,90.585L10.583,90.585Z" style="fill:#fff;fill-rule:nonzero;"/>
        <path d="M190.583,1.043L179,1.043L148.583,43.627L118,1.043L106.292,1.043L142.292,50.918L106.292,100.752L117.875,100.752L148.292,58.043L178.875,100.752L190.583,100.752L154.583,50.918L190.583,1.043Z" style="fill:#fff;fill-rule:nonzero;"/>
        <path d="M253.875,0.377L242.292,0.377L202,101.21L213.167,101.21L248,14.043L282.875,101.21L294,101.21L253.875,0.377Z" style="fill:#fff;fill-rule:nonzero;"/>
        <path d="M335.26,22.712L335.26,40.962L372.135,40.962L372.135,60.67L335.26,60.67L335.26,77.587L384.218,77.587L384.218,100.42L306.843,100.42L306.843,22.337L329.176,0.004L384.218,0.004L384.218,22.712L335.26,22.712Z" style="fill:#fff;fill-rule:nonzero;"/>
        <path d="M434.493,0L391.66,0L391.66,100.333L420.077,71.917L420.077,22.708L434.493,22.708C443.743,22.708 453.66,25.75 460.785,31.25L478.493,13.5C465.993,4.375 450.16,0 434.493,0" style="fill:#fff;fill-rule:nonzero;"/>
        <path d="M594.91,47.167L571.952,70.083L571.952,70.167L599.077,70.167C591.952,75.167 582.66,77.583 573.66,77.583C571.535,77.583 569.41,77.458 567.285,77.125C551.785,75.083 536.66,65.583 536.66,50C536.66,33 555.827,22.708 572.827,22.708C583.868,22.708 595.452,26.292 601.91,32.542L619.91,14.542C607.202,4.708 590.827,0 574.66,0C558.243,0 542.243,4.583 529.368,14.583C517.66,23.583 510.077,35.417 510.077,50C510.077,64.875 517.535,76.708 529.368,85.875C542.243,95.708 558.243,100.417 574.66,100.417C592.368,100.417 610.535,94.583 623.535,82.708L623.952,82.417L623.952,47.167L594.91,47.167Z" style="fill:#fff;fill-rule:nonzero;"/>
        <path d="M663.385,22.795L663.385,41.045L700.26,41.045L700.26,60.754L663.385,60.754L663.385,77.67L712.301,77.67L689.51,100.504L634.968,100.504L634.968,0.087L712.343,0.087L712.343,22.795L663.385,22.795Z" style="fill:#fff;fill-rule:nonzero;"/>
        <path d="M507.577,50C507.577,64.583 499.827,76.875 488.285,85.875C475.577,95.708 459.118,100.417 442.827,100.417L399.993,100.417L399.993,100.333L428.41,71.917L428.41,77.583L442.827,77.583C460.118,77.583 478.993,67.417 478.993,50C478.993,42.208 475.035,35.875 469.118,31.25L486.827,13.5C487.327,13.833 487.827,14.208 488.285,14.583C499.702,23.417 507.577,35.708 507.577,50" style="fill:#fff;fill-rule:nonzero;"/>
    </g>
</svg>
