<?xml version="1.0" encoding="UTF-8" standalone="no"?>
<!DOCTYPE svg PUBLIC "-//W3C//DTD SVG 1.1//EN" "http://www.w3.org/Graphics/SVG/1.1/DTD/svg11.dtd">
<svg width="100%" height="100%" viewBox="0 0 8141 1180" version="1.1" xmlns="http://www.w3.org/2000/svg" xmlns:xlink="http://www.w3.org/1999/xlink" xml:space="preserve" xmlns:serif="http://www.serif.com/" style="fill-rule:evenodd;clip-rule:evenodd;stroke-linejoin:round;stroke-miterlimit:2;">
    <g id="Page-1" serif:id="Page 1">
        <g id="Layer-1" serif:id="Layer 1">
            <g>
                <path d="M120.938,1057.987L120.938,698.039L903.699,698.039L903.699,577.101L120.938,577.101L120.938,154.774L1024.636,154.774L1024.636,35.26L0,35.26L0,1179.393L1083.664,1179.393L1083.664,1057.987L120.938,1057.987Z" style="fill:#231f20;fill-rule:nonzero;"/>
            </g>
            <g>
                <path d="M2177.816,34.774L2045.455,34.774L1697.868,521.389L1348.388,34.774L1214.603,34.774L1625.975,604.705L1214.603,1174.15L1346.965,1174.15L1694.534,686.112L2044.031,1174.15L2177.816,1174.15L1766.444,604.705L2177.816,34.774Z" style="fill:#231f20;fill-rule:nonzero;"/>
            </g>
            <g>
                <path d="M2901.063,27.17L2768.702,27.17L2308.285,1179.411L2435.889,1179.411L2833.928,183.333L3232.452,1179.411L3359.57,1179.411L2901.063,27.17Z" style="fill:#231f20;fill-rule:nonzero;"/>
            </g>
            <g>
                <path d="M3831.064,259.531L3831.064,468.073L4252.436,468.073L4252.436,693.282L3831.064,693.282L3831.064,886.598L4390.509,886.598L4390.509,1147.518L3506.341,1147.518L3506.341,255.243L3761.55,0.035L4390.509,0.035L4390.509,259.531L3831.064,259.531Z" style="fill:#231f20;fill-rule:nonzero;"/>
            </g>
            <g>
                <path d="M4965.006,-0L4475.544,-0L4475.544,1146.529L4800.266,821.806L4800.266,259.497L4965.006,259.497C5070.7,259.497 5184.016,294.254 5265.44,357.101L5467.801,154.271C5324.954,50 5144.034,-0 4965.006,-0" style="fill:#231f20;fill-rule:nonzero;"/>
            </g>
            <g>
                <path d="M6798.115,538.976L6535.771,800.851L6535.771,801.806L6845.719,801.806C6764.313,858.942 6658.132,886.546 6555.285,886.546C6531.014,886.546 6506.726,885.122 6482.437,881.32C6305.319,857.987 6132.489,749.428 6132.489,571.355C6132.489,377.101 6351.5,259.497 6545.771,259.497C6671.934,259.497 6804.313,300.434 6878.098,371.858L7083.792,166.163C6938.566,53.802 6751.448,-0 6566.708,-0C6379.121,-0 6196.291,52.379 6049.156,166.649C5915.371,269.479 5828.722,404.705 5828.722,571.355C5828.722,741.337 5913.947,876.546 6049.156,981.303C6196.291,1093.664 6379.121,1147.466 6566.708,1147.466C6769.07,1147.466 6976.657,1080.817 7125.216,945.122L7129.973,941.789L7129.973,538.976L6798.115,538.976Z" style="fill:#231f20;fill-rule:nonzero;"/>
            </g>
            <g>
                <path d="M7580.581,260.486L7580.581,469.028L8001.953,469.028L8001.953,694.237L7580.581,694.237L7580.581,887.553L8139.557,887.553L7879.123,1148.473L7255.858,1148.473L7255.858,0.99L8140.026,0.99L8140.026,260.486L7580.581,260.486Z" style="fill:#231f20;fill-rule:nonzero;"/>
            </g>
            <g>
                <path d="M5800.145,571.355C5800.145,738.004 5711.586,878.456 5579.694,981.303C5434.485,1093.664 5246.412,1147.466 5060.249,1147.466L4570.769,1147.466L4570.769,1146.529L4895.492,821.806L4895.492,886.546L5060.249,886.546C5257.836,886.546 5473.513,770.383 5473.513,571.355C5473.513,482.327 5428.287,409.948 5360.683,357.101L5563.027,154.271C5568.739,158.073 5574.468,162.361 5579.694,166.649C5710.163,267.587 5800.145,408.039 5800.145,571.355" style="fill:#231f20;fill-rule:nonzero;"/>
            </g>
        </g>
    </g>
</svg>
