<?xml version="1.0" encoding="UTF-8" standalone="no"?>
<!DOCTYPE svg PUBLIC "-//W3C//DTD SVG 1.1//EN" "http://www.w3.org/Graphics/SVG/1.1/DTD/svg11.dtd">
<svg width="100%" height="100%" viewBox="0 0 4267 4267" version="1.1" xmlns="http://www.w3.org/2000/svg" xmlns:xlink="http://www.w3.org/1999/xlink" xml:space="preserve" xmlns:serif="http://www.serif.com/" style="fill-rule:evenodd;clip-rule:evenodd;stroke-linejoin:round;stroke-miterlimit:2;">
    <defs>
        <radialGradient id="bgGlow" cx="0" cy="0" r="1" gradientUnits="userSpaceOnUse" gradientTransform="matrix(2440,0,0,2440,2140,1380)">
            <stop offset="0" style="stop-color:#173154;stop-opacity:1"/>
            <stop offset="0.52" style="stop-color:#10213a;stop-opacity:1"/>
            <stop offset="1" style="stop-color:#0d1627;stop-opacity:1"/>
        </radialGradient>
        <linearGradient id="outerStroke" x1="713" y1="585" x2="3554" y2="3682" gradientUnits="userSpaceOnUse">
            <stop offset="0" style="stop-color:#dce8ff;stop-opacity:0.96"/>
            <stop offset="0.45" style="stop-color:#9ab7f2;stop-opacity:0.9"/>
            <stop offset="1" style="stop-color:#6287d1;stop-opacity:0.88"/>
        </linearGradient>
    </defs>
    <g id="mediaseg-ver2">
        <rect x="90" y="90" width="4086.667" height="4086.667" rx="920" ry="920" style="fill:url(#bgGlow);fill-rule:nonzero;"/>
        <rect x="135" y="135" width="3996.667" height="3996.667" rx="840" ry="840" style="fill:none;stroke:url(#outerStroke);stroke-width:34px;"/>
        <g id="Media">
            <path d="M1630.741,2685.244C1530.719,2680.888 1405.159,2684.501 1303.495,2684.281L615.164,2684.424L615.092,1337.937L850.618,1337.623L1581.092,1337.502C1588.019,1361.76 1607.667,1406.678 1617.539,1432.625L1706.869,1664.676L1809.667,1937.131C1826.78,1982.291 1849.927,2047.532 1869.912,2090.037C1858.665,2118.905 1846.862,2148.521 1834.817,2177.074C1764.169,2344.619 1702.621,2518.469 1630.741,2685.244Z" style="fill:#5da8ff;fill-rule:nonzero;"/>
            <path d="M3656.414,2683.835L2650.514,2684.588C2569.52,2487.632 2487.05,2291.284 2403.112,2095.565C2425.257,2043.429 2442.554,1992.694 2463.065,1940.172L2616.519,1543.316C2642.322,1474.213 2669.632,1405.688 2698.435,1337.768C2802.355,1339.143 2908.325,1337.816 3012.4,1337.84L3658.425,1337.43L3656.414,2683.835Z" style="fill:#5da8ff;fill-rule:nonzero;"/>
        </g>
        <path d="M1462.46,1585.483C1428.958,1587.8 1396.205,1575.587 1372.189,1551.788C1338.18,1518.069 1343.78,1471.606 1343.973,1427.846L1446.795,1427.701C1487.393,1427.967 1527.991,1427.846 1568.589,1427.363C1567.648,1466.392 1571.124,1505.228 1546.818,1537.934C1524.178,1568.394 1498.207,1579.449 1462.46,1585.483Z" style="fill:#0d1627;fill-rule:nonzero;"/>
        <path d="M1158.385,1585.579C1153.172,1586.159 1147.91,1586.473 1142.672,1586.473C1110.836,1586.762 1085.299,1573.584 1062.49,1551.716C1026.792,1517.441 1034.492,1475.492 1034.612,1428.667L1137.242,1428.16L1256.96,1427.749C1259.011,1508.414 1251.07,1567.887 1158.385,1585.579Z" style="fill:#0d1627;fill-rule:nonzero;"/>
        <path d="M834.76,1585.314C799.979,1584.18 775.36,1575.297 750.016,1550.412C714.68,1515.728 721.124,1475.612 721.559,1429.487L826.481,1429.294L942.506,1429.029C944.51,1472.233 951.123,1506.894 922.014,1541.651C896.236,1572.425 872.751,1580.993 834.76,1585.314Z" style="fill:#0d1627;fill-rule:nonzero;"/>
        <path d="M1568.541,2592.762L1344.093,2592.776C1343.321,2541.807 1339.025,2520.429 1375.761,2480.654C1398.836,2461.106 1420.197,2447.84 1451.623,2447.174C1482.18,2446.525 1517.395,2457.823 1538.853,2480.109C1572.644,2515.194 1568.565,2548.604 1568.541,2592.762Z" style="fill:#0d1627;fill-rule:nonzero;"/>
        <path d="M1255.463,2592.781L1031.885,2592.849C1033.43,2541.679 1026.937,2517.687 1064.735,2477.386C1114.288,2434.666 1180.519,2435.733 1227.248,2483.715C1257.443,2514.709 1256.163,2552.326 1255.463,2592.781Z" style="fill:#0d1627;fill-rule:nonzero;"/>
        <path d="M944.268,2592.88L721.607,2592.904C722.09,2542.432 718.518,2516.891 754.723,2478.564C804.203,2436.764 873.669,2434.758 918.852,2484.545C946.851,2515.404 946.489,2553.689 944.268,2592.88Z" style="fill:#0d1627;fill-rule:nonzero;"/>
        <path d="M3456.046,1585.507C3418.013,1588.307 3386.264,1576.625 3358.871,1549.036C3324.904,1514.811 3330.667,1473.851 3331.445,1429.68L3426.362,1429.535L3555.139,1429.27C3555.904,1480.971 3560.174,1526.203 3514.256,1561.032C3495.198,1575.49 3479.149,1580.897 3456.046,1585.507Z" style="fill:#0d1627;fill-rule:nonzero;"/>
        <path d="M3140.144,1585.459C3103.299,1588.21 3074.652,1582.852 3047.266,1555.819C3009.241,1518.286 3014.259,1478.316 3014.38,1429.56L3103.179,1429.27L3236.274,1429.318C3237.635,1508.366 3232.759,1566.705 3140.144,1585.459Z" style="fill:#0d1627;fill-rule:nonzero;"/>
        <path d="M2825.679,1585.724C2821.839,1586.014 2817.989,1586.183 2814.139,1586.231C2783.483,1586.448 2748.953,1571.773 2727.763,1549.495C2694.862,1514.907 2700.58,1475.009 2700.757,1431.104L2790.608,1430.501C2834.44,1429.946 2878.277,1429.777 2922.115,1429.97C2922.67,1463.93 2927.012,1506.556 2907.859,1534.072C2886.107,1565.28 2861.826,1578.363 2825.679,1585.724Z" style="fill:#0d1627;fill-rule:nonzero;"/>
        <path d="M3239.1,2593.008C3164.529,2593.462 3087.43,2593.653 3012.968,2592.808C3015.676,2546.562 3012.697,2519.415 3045.219,2481.238C3068.193,2460.22 3093.58,2446.783 3125.503,2446.098C3157.486,2445.542 3188.307,2458.096 3210.802,2480.84C3245.301,2515.578 3239.631,2547.255 3239.1,2593.008Z" style="fill:#0d1627;fill-rule:nonzero;"/>
        <path d="M3556.655,2592.779L3330.841,2592.767C3331.882,2544.061 3327.283,2516.116 3363.327,2478.46C3389.117,2456.802 3414.079,2446.974 3447.731,2447.741C3477.94,2448.168 3506.677,2460.86 3527.346,2482.899C3559.076,2517.04 3557.541,2549.912 3556.655,2592.779Z" style="fill:#0d1627;fill-rule:nonzero;"/>
        <path d="M2923.831,2592.89C2851.845,2593.428 2773.459,2594.297 2701.671,2592.81C2701.179,2545.922 2701.213,2517.031 2733.43,2479.981C2757.483,2458.762 2779.937,2447.464 2812.932,2447.357C2844.233,2447.258 2873.462,2458.369 2895.144,2481.197C2927.123,2514.87 2924.982,2550.018 2923.831,2592.89Z" style="fill:#0d1627;fill-rule:nonzero;"/>
        <g id="scissors">
            <path d="M2706.564,3400.358C2642.191,3410.416 2555.024,3383.305 2500.929,3346.888C2384.124,3268.25 2333.439,3128.103 2374.713,2993.301C2386.501,2954.808 2408.207,2922.883 2431.188,2889.277C2355.959,2757.324 2281.065,2619.923 2203.926,2489.717L2099.018,2312.518C2079.202,2279.368 2055.62,2242.951 2038.338,2209.068C2030.47,2193.608 2018.377,2157.33 2012.078,2140.073C1999.068,2104.037 1985.479,2068.169 1971.359,2032.544C1904.548,1866.41 1839.017,1699.794 1774.765,1532.672L1688.042,1313.848C1677.06,1285.849 1653.768,1228.839 1647.661,1201.95C1643.799,1185.03 1652.295,1108.034 1654.564,1084.67L1675.153,884.359C1698.59,921.771 1726.926,980.061 1747.829,1020.321C1875.198,1274.409 2010.412,1523.886 2136.165,1779.759C2299.382,2111.857 2433.493,2449.745 2582.441,2787.133C2595.482,2784.516 2608.571,2782.141 2621.699,2780.012C2715.782,2765.687 2802.046,2783.551 2878.881,2841.035C2944.962,2890.114 2988.73,2963.534 3000.474,3045.007C3026.593,3235.707 2890.377,3377.281 2706.564,3400.358Z" style="fill:#fff;fill-rule:nonzero;"/>
            <path d="M1622.149,3400.302C1584.906,3403.737 1547.349,3400.452 1511.289,3390.607C1425.41,3367.846 1357.707,3319.268 1313.585,3241.55C1272.118,3169.222 1261.377,3083.278 1283.8,3002.971C1314.454,2893.049 1412.762,2806.901 1522.44,2781.089C1585.775,2766.182 1639.455,2771.475 1701.076,2789.462L1900.373,2303.645C1913.334,2269.619 1929.023,2233.339 1942.878,2199.401C1963.08,2237.496 1989.655,2281.876 2011.595,2319.3C2036.673,2362.056 2065.54,2413.25 2092.863,2454.224C2075.147,2490.084 2033.897,2554.561 2011.909,2592.755L1843.724,2890.916C2008.94,3094.741 1875.946,3370.322 1622.149,3400.302Z" style="fill:#fff;fill-rule:nonzero;"/>
            <path d="M2314.914,2000.007C2304.065,1993.249 2257.389,1879.975 2249.137,1861.486C2224.406,1807.42 2199.159,1753.595 2173.408,1700.012C2213.602,1620.505 2262.503,1534.048 2304.97,1454.517L2565.41,966.641C2580.553,938.739 2595.364,908.882 2609.93,880.545C2612.081,931.739 2637.849,1180.348 2629.049,1207.381C2616.116,1247.11 2598.516,1285.463 2582.899,1324.203L2498.225,1536.316L2384.626,1824.34C2362.654,1880.458 2339.015,1945.555 2314.914,2000.007Z" style="fill:#fff;fill-rule:nonzero;"/>
        </g>
        <path d="M2715.181,3304.306C2596.413,3323.021 2484.892,3242.117 2465.817,3123.406C2446.744,3004.696 2527.31,2892.929 2645.961,2873.496C2765.122,2853.979 2877.474,2934.968 2896.629,3054.186C2915.784,3173.407 2834.457,3285.513 2715.181,3304.306Z" style="fill:#0d1627;fill-rule:nonzero;"/>
        <path d="M2165.708,2194.96C2123.324,2204.566 2081.109,2178.185 2071.164,2135.873C2061.22,2093.561 2087.264,2051.153 2129.503,2040.871C2172.201,2030.492 2215.183,2056.897 2225.239,2099.668C2235.292,2142.462 2208.563,2185.233 2165.708,2194.96Z" style="fill:#0d1627;fill-rule:nonzero;"/>
        <path d="M1607.86,3305.904C1487.586,3313.215 1384.209,3221.582 1377.016,3101.313C1369.823,2981.042 1461.567,2877.747 1581.84,2870.68C1701.945,2863.62 1805.057,2955.197 1812.225,3075.296C1819.418,3195.396 1727.94,3298.605 1607.86,3305.904Z" style="fill:#0d1627;fill-rule:nonzero;"/>
    </g>
</svg>
